<svg xmlns="http://www.w3.org/2000/svg" xmlns:xlink="http://www.w3.org/1999/xlink" version="1.1" id="Layer_1" x="0px" y="0px" viewBox="0 0 300 73.1" style="enable-background:new 0 0 300 73.1;" xml:space="preserve"> <style type="text/css"> .st0{fill-rule:evenodd;clip-rule:evenodd;fill:#0093D0;} .st1{fill-rule:evenodd;clip-rule:evenodd;fill:#FFFFFF;} .st2{fill:#231F20;} .st3{fill:#0093D0;} </style> <g> <polygon class="st0" points="128.4,36 149.9,1.7 171.4,36.1 128.4,36 "></polygon> <path class="st1" d="M158.8,24c0,4.9-4,8.9-8.9,8.9s-8.9-4-8.9-8.9s4-8.9,8.9-8.9S158.8,19.1,158.8,24L158.8,24z"></path> </g> <g> <g> <path class="st2" d="M59.6,38.5h1.6l6.2,14.5h-1.6l-2.1-4.9H57l-2.1,4.9h-1.6L59.6,38.5L59.6,38.5z M63.2,46.9l-2.8-6.7l-2.8,6.7 H63.2z"></path> <path class="st2" d="M68,38.5h1.4v14.5H68V38.5z"></path> </g> <g> <path class="st2" d="M75.8,46.5v1.3h-5.3v-1.3H75.8z"></path> <path class="st2" d="M81.3,38.5h1.6l6.2,14.5h-1.6l-2.1-4.9h-6.8l-2.1,4.9h-1.6L81.3,38.5L81.3,38.5z M84.9,46.9l-2.8-6.7 l-2.8,6.7H84.9z"></path> </g> <g> <path class="st2" d="M89.9,42.3h1.4v1.6h0c0.8-1.2,1.9-1.8,3.3-1.8s2.8,0.6,3.8,1.8c0.8,1,1,2.2,1,3.5v5.7h-1.4v-5.7 c0-0.9-0.1-1.8-0.6-2.6c-0.7-0.9-1.7-1.4-2.8-1.4c-1,0-2,0.5-2.6,1.3c-0.6,0.8-0.6,1.7-0.6,2.6v5.7h-1.4L89.9,42.3L89.9,42.3z"></path> <path class="st2" d="M111.6,47.6c0,3.1-2.5,5.7-5.6,5.7s-5.6-2.5-5.6-5.6s2.5-5.7,5.6-5.7S111.6,44.6,111.6,47.6z M101.8,47.8 c0,2.3,1.9,4.2,4.2,4.2s4.1-2,4.1-4.3c0-1.2-0.4-2.1-1.3-3c-0.8-0.7-1.8-1.2-2.9-1.2C103.6,43.5,101.8,45.4,101.8,47.8z"></path> </g> <path class="st2" d="M112.9,42.3h1.4v1.6h0c0.8-1.2,1.9-1.8,3.3-1.8s2.8,0.6,3.8,1.8c0.8,1,1,2.2,1,3.5v5.7H121v-5.7 c0-0.9-0.1-1.8-0.6-2.6c-0.7-0.9-1.7-1.4-2.8-1.4c-1,0-2,0.5-2.6,1.3c-0.6,0.8-0.6,1.7-0.6,2.6v5.7H113L112.9,42.3L112.9,42.3z"></path> <g> <path class="st3" d="M128.4,38.5h7.4v1.3h-5.9v5.2h5.7v1.3h-5.7v6.6h-1.4V38.5L128.4,38.5z"></path> <path class="st3" d="M145.8,53.1h-1.4v-2h0c-0.8,1.5-2.4,2.3-4.1,2.3s-3.4-0.7-4.7-2.3c-0.4-0.4-1.1-1.8-1.1-3.4 c0-1.5,0.6-2.8,1.6-3.8c1-1.1,2.4-1.8,4.2-1.8c1.7,0,3.4,0.8,4.2,2.3h0v-2.1h1.4V53.1L145.8,53.1z M135.9,47.7 c0,2.4,2,4.2,4.4,4.2s4.2-1.9,4.2-4.2c0-2.4-1.8-4.3-4.2-4.3S135.9,45.4,135.9,47.7L135.9,47.7z"></path> </g> <path class="st3" d="M147.8,42.3h1.4v1.4h0c0.5-1.1,1.6-1.6,2.8-1.6c1.4,0,2.6,0.6,3.5,1.6c0.1,0.1,0.2,0.3,0.3,0.4 c0.1-0.1,0.1-0.3,0.2-0.4c0.8-1,2.1-1.6,3.4-1.6c1.2,0,2.3,0.6,3.3,1.6c0.9,0.9,1,2,1,3.2v6.1h-1.4v-6c0-0.8-0.1-1.6-0.5-2.3 c-0.6-0.8-1.4-1.3-2.4-1.3c-0.9,0-1.9,0.5-2.4,1.2c-0.5,0.7-0.4,1.6-0.4,2.4v6H155v-6.1c0-0.8,0-1.4-0.5-2.1 c-0.6-0.8-1.4-1.3-2.4-1.3c-0.9,0-1.8,0.4-2.4,1.1c-0.5,0.7-0.5,1.5-0.5,2.3v6.1h-1.4L147.8,42.3L147.8,42.3z"></path> <g> <path class="st3" d="M165.4,38.5h1.5V41h-1.5V38.5z M165.4,42.3h1.5v10.8h-1.5V42.3z"></path> <path class="st3" d="M169.1,38.5h1.5v14.5h-1.5V38.5z"></path> <path class="st3" d="M182,42.3l-6.2,14.5h-1.5l1.7-4.1l-4.1-10.4h1.6l3.4,8.6l3.6-8.6L182,42.3L182,42.3z"></path> </g> <g> <path class="st2" d="M200.2,46.4c-0.3,4-3.8,7-7.7,7c-4.2,0-7.8-3.3-7.8-7.6c0-1.9,0.9-3.9,2.2-5.2c1.5-1.5,3.5-2.2,5.5-2.2 c1.5,0,3,0.4,4.3,1.2c0.9,0.6,2.2,1.8,2.5,2.9h-1.6c-1-1.7-3.1-2.7-5.1-2.7c-1.6,0-3.1,0.5-4.3,1.6s-2,2.8-2,4.4 c0,3.5,2.9,6.2,6.4,6.2c2.6,0,5.1-1.7,5.9-4.2h-8.1v-1.3L200.2,46.4L200.2,46.4z"></path> <path class="st2" d="M201.2,42.3h1.4v1.6h0c0.5-1.3,1.8-1.8,3.1-1.8v1.4c-0.8,0.1-1.3,0.2-1.9,0.8c-1,0.9-1.1,1.6-1.1,2.8v6h-1.5 L201.2,42.3L201.2,42.3z"></path> </g> <g> <path class="st2" d="M215.9,47.6c0,3.1-2.5,5.7-5.6,5.7s-5.6-2.5-5.6-5.6s2.5-5.7,5.6-5.7S215.9,44.6,215.9,47.6z M206.1,47.8 c0,2.3,1.9,4.2,4.2,4.2s4.1-2,4.1-4.3c0-1.2-0.4-2.1-1.3-3c-0.8-0.7-1.8-1.2-2.9-1.2C208,43.5,206.2,45.4,206.1,47.8L206.1,47.8z"></path> <path class="st2" d="M226.5,53.1h-1.4v-1.7h0c-0.7,1.4-2,1.9-3.5,1.9c-1.4,0-2.6-0.5-3.8-1.9c-0.6-0.7-0.8-2-0.8-3.4v-5.7h1.5V48 c0,0.8,0,1.6,0.5,2.4c0.6,1,1.6,1.6,2.8,1.6c1,0,2-0.5,2.6-1.3c0.6-0.8,0.6-1.7,0.6-2.6v-5.7h1.5V53.1L226.5,53.1z"></path> </g> <g> <path class="st2" d="M229.7,42.3v1.9h0c0.8-1.4,2.7-2.1,4.2-2.1s3,0.6,4.4,2.1c0.6,0.6,1.3,2,1.3,3.6c0,3.2-2.7,5.6-5.8,5.6 c-1.6,0-3.4-0.8-4-2.3h0v5.8h-1.5V42.3L229.7,42.3L229.7,42.3z M238.2,47.7c0-2.3-1.9-4.2-4.2-4.2s-4.3,1.8-4.3,4.1 c0,1.2,0.3,2.2,1.1,3c0.8,0.9,1.9,1.3,3.1,1.3C236.3,51.9,238.2,50.1,238.2,47.7L238.2,47.7z"></path> <path class="st2" d="M241.2,49.9c0,1.1,0.9,2,1.9,2c1,0,1.9-0.7,1.9-1.8c0-1.3-1-1.8-2.1-2.1c-0.7-0.2-1.4-0.4-1.9-0.9 c-0.6-0.5-0.9-1.3-0.9-2c0-1.8,1.4-3,3.1-3s3,1.3,3,2.9h-1.4c0-0.9-0.7-1.5-1.7-1.5c-0.8,0-1.5,0.7-1.5,1.5c0,1.2,0.9,1.5,1.9,1.8 c1.6,0.5,3,1.2,3,3.1s-1.5,3.4-3.5,3.4c-1.8,0-3.4-1.6-3.3-3.4L241.2,49.9L241.2,49.9z"></path> </g> </g> <g> <path class="st3" d="M8.2,63.1c-0.7,0-0.7,0-0.7,0.5v2.1c0,1.5,0.1,1.7,0.9,1.8l0.4,0c0.1,0.1,0.1,0.3,0,0.4c-0.8,0-1.3,0-1.8,0 c-0.6,0-1.1,0-1.7,0c-0.1,0-0.1-0.3,0-0.4l0.2,0c0.8-0.1,0.8-0.3,0.8-1.8v-5.2c0-1.5-0.1-1.8-0.9-1.8l-0.4,0 c-0.1-0.1-0.1-0.3,0-0.4c0.7,0,1.2,0,1.8,0c0.6,0,1.1,0,1.7,0c0.1,0,0.1,0.3,0,0.4l-0.3,0c-0.8,0.1-0.9,0.3-0.9,1.8v1.7 c0,0.4,0,0.5,0.7,0.5h4.2c0.7,0,0.7,0,0.7-0.5v-1.7c0-1.5,0-1.8-0.9-1.8l-0.3,0c-0.1-0.1-0.1-0.3,0-0.4c0.7,0,1.2,0,1.8,0 s1.1,0,1.7,0c0.1,0,0.1,0.3,0,0.4l-0.3,0c-0.9,0.1-0.9,0.3-0.9,1.8v5.2c0,1.5,0,1.7,0.9,1.8l0.4,0c0.1,0.1,0.1,0.3,0,0.4 c-0.7,0-1.2,0-1.8,0c-0.6,0-1.1,0-1.8,0c-0.1,0-0.1-0.3,0-0.4l0.3,0c0.9-0.1,0.9-0.3,0.9-1.8v-2.1c0-0.4,0-0.5-0.7-0.5H8.2 L8.2,63.1z"></path> <path class="st3" d="M17.8,64.1c-0.4,0-0.4,0-0.4,0.4c0,1.5,0.9,2.7,2.4,2.7c0.5,0,0.9-0.1,1.3-0.7c0.1,0,0.2,0,0.3,0.2 c-0.5,1-1.5,1.4-2.3,1.4c-1,0-1.7-0.4-2.1-1c-0.4-0.6-0.6-1.2-0.6-1.9c0-1.8,1.2-3.3,2.9-3.3c1.2,0,2.1,0.9,2.1,1.7 c0,0.2,0,0.3-0.1,0.4c0,0.1-0.2,0.1-0.9,0.1L17.8,64.1L17.8,64.1z M18.7,63.7c1.1,0,1.4-0.1,1.5-0.1c0,0,0.1-0.1,0.1-0.3 c0-0.4-0.3-0.9-1.1-0.9s-1.6,0.8-1.6,1.3c0,0,0,0.1,0.1,0.1L18.7,63.7L18.7,63.7z"></path> <path class="st3" d="M24,66.2c0,1.1,0,1.2,0.5,1.3l0.4,0c0.1,0.1,0.1,0.3,0,0.4c-0.5,0-0.9,0-1.4,0s-1,0-1.4,0 c-0.1,0-0.1-0.3,0-0.4l0.3,0c0.5-0.1,0.5-0.2,0.5-1.3v-6.6c0-0.9,0-0.9-0.5-1.2l-0.1-0.1c-0.1,0-0.1-0.2,0-0.3 c0.4-0.1,1-0.3,1.6-0.6c0.1,0,0.1,0,0.1,0.1c0,0.4,0,1.2,0,1.8L24,66.2L24,66.2z"></path> <path class="st3" d="M26.5,63.6c0-0.6,0-0.6-0.4-0.9L26,62.7c-0.1-0.1-0.1-0.2,0-0.3c0.4-0.2,1.1-0.5,1.4-0.8c0.1,0,0.1,0,0.2,0.1 c0,0.3-0.1,0.5-0.1,0.7c0,0.1,0,0.2,0.1,0.2c0.2-0.1,1.1-0.7,2-0.7c1.5,0,2.4,1.2,2.4,2.7c0,2-1.5,3.5-3.6,3.5 c-0.3,0-0.7,0-0.8-0.1c-0.1,0-0.2,0.1-0.2,0.4v1.5c0,1,0,1.2,0.5,1.2l0.6,0.1c0.1,0.1,0.1,0.3,0,0.4c-0.7,0-1.1,0-1.6,0s-1,0-1.4,0 c-0.1,0-0.1-0.3,0-0.4l0.3,0c0.5-0.1,0.5-0.2,0.5-1.3L26.5,63.6L26.5,63.6z M27.6,66.4c0,0.5,0.1,0.6,0.4,0.9 c0.3,0.2,0.7,0.3,1,0.3c1.2,0,1.9-1.1,1.9-2.6c0-1.2-0.7-2.4-2-2.4c-0.6,0-1.1,0.2-1.2,0.4c-0.1,0.2-0.2,0.4-0.2,0.9V66.4z"></path> <path class="st3" d="M39.8,64.8c0.2-0.1,0.2-0.2,0.2-0.4v-0.7c0-0.5-0.2-1.3-1-1.3c-0.4,0-0.9,0.2-0.9,0.7c0,0.2,0,0.4-0.2,0.5 c-0.2,0.2-0.6,0.3-0.8,0.3c-0.1,0-0.2-0.1-0.2-0.2c0-0.8,1.7-1.8,2.7-1.8s1.6,0.6,1.5,1.7L41,66.2c0,0.7,0.1,1.3,0.7,1.3 c0.2,0,0.3,0,0.4-0.1c0.1,0,0.2-0.1,0.2-0.1c0.1,0,0.1,0.1,0.1,0.2c0,0.1-0.5,0.6-1.2,0.6c-0.3,0-0.7-0.1-1-0.4 c-0.1-0.1-0.2-0.2-0.2-0.2c-0.1,0-0.3,0.1-0.6,0.3c-0.3,0.2-0.6,0.4-1,0.4s-0.8-0.1-1-0.3c-0.3-0.2-0.5-0.6-0.5-1 c0-0.6,0.3-0.9,1.2-1.2L39.8,64.8L39.8,64.8z M38.9,67.4c0.3,0,0.7-0.2,0.9-0.4c0.2-0.2,0.2-0.4,0.2-0.7l0-0.9 c0-0.2-0.1-0.2-0.2-0.2s-0.3,0.1-0.6,0.1c-0.9,0.3-1.3,0.5-1.3,1.1C38,66.7,38.1,67.4,38.9,67.4L38.9,67.4z"></path> <path class="st3" d="M43.7,63.6c0-0.6,0-0.6-0.4-0.9l-0.1-0.1c-0.1-0.1-0.1-0.2,0-0.3c0.3-0.1,1.2-0.5,1.5-0.7c0.1,0,0.1,0,0.2,0.1 c0,0.3,0,0.6,0,0.7c0,0.1,0.1,0.2,0.2,0.2c0.6-0.4,1.3-0.7,2-0.7c1.2,0,1.7,0.8,1.7,1.8v2.5c0,1.1,0,1.2,0.5,1.3l0.3,0 c0.1,0.1,0.1,0.3,0,0.4c-0.4,0-0.9,0-1.4,0s-1,0-1.4,0c-0.1,0-0.1-0.3,0-0.4l0.3,0c0.5-0.1,0.5-0.2,0.5-1.3V64 c0-0.8-0.4-1.4-1.4-1.4c-0.5,0-1,0.2-1.2,0.5c-0.2,0.2-0.2,0.4-0.2,0.9v2.2c0,1.1,0,1.2,0.5,1.3l0.3,0c0.1,0.1,0.1,0.3,0,0.4 c-0.4,0-0.8,0-1.3,0s-1,0-1.4,0c-0.1,0-0.1-0.3,0-0.4l0.3,0c0.5-0.1,0.5-0.2,0.5-1.3L43.7,63.6L43.7,63.6z"></path> <path class="st3" d="M56,65.7c0,1.1,0,1.7,0.4,1.7c0.2,0,0.4-0.1,0.6-0.1c0.1,0,0.1,0.4,0,0.5c-0.6,0.1-1.5,0.3-1.9,0.5 c-0.1,0-0.2,0-0.2-0.1v-0.2c0-0.2,0-0.4,0-0.4h-0.1c-0.6,0.4-1.1,0.7-1.8,0.7c-1.6,0-2.7-1.3-2.7-2.8c0-2,1.5-3.4,3.5-3.4 c0.5,0,0.8,0.1,1,0.1c0.1,0,0.1-0.1,0.1-0.2v-2.2c0-0.9,0-0.9-0.5-1.2l-0.2-0.1c-0.1,0-0.1-0.2,0-0.3c0.4-0.1,1-0.3,1.6-0.6 c0.1,0,0.1,0,0.2,0.1c0,0.4,0,1.2,0,1.8L56,65.7L56,65.7z M55,63.5c0-0.3-0.1-0.4-0.2-0.6c-0.2-0.3-0.7-0.6-1.2-0.6 c-1.3,0-2,1.1-2,2.4s0.7,2.6,2.2,2.6c0.4,0,0.9-0.2,1.1-0.4c0.1-0.1,0.1-0.3,0.1-0.5C55,66.4,55,63.5,55,63.5z"></path> <path class="st3" d="M62.2,59.6c0-0.9,0-0.9-0.5-1.2l-0.2-0.1c-0.1,0-0.1-0.2,0-0.3c0.4-0.1,1-0.3,1.6-0.6c0.1,0,0.1,0,0.2,0.1 c0,0.4,0,1.2,0,1.8v3.1c0,0.1,0,0.2,0.1,0.3c0.5-0.4,1.2-0.8,2-0.8c1.4,0,1.9,0.9,1.9,1.9v2.4c0,1.1,0,1.2,0.6,1.3l0.4,0 c0.1,0.1,0.1,0.3,0,0.4c-0.5,0-0.9,0-1.5,0s-1,0-1.4,0c-0.1,0-0.1-0.3,0-0.4l0.3,0c0.5-0.1,0.6-0.2,0.6-1.3v-2.1 c0-0.9-0.4-1.6-1.4-1.6c-0.5,0-0.9,0.2-1.1,0.4c-0.3,0.2-0.3,0.3-0.3,0.8v2.4c0,1.1,0,1.2,0.5,1.3l0.3,0c0.1,0.1,0.1,0.3,0,0.4 c-0.4,0-0.9,0-1.4,0s-1,0-1.4,0c-0.1,0-0.1-0.3,0-0.4l0.4,0c0.5-0.1,0.5-0.2,0.5-1.3L62.2,59.6L62.2,59.6z"></path> <path class="st3" d="M75,64.9c0,1.8-1.2,3.1-3.1,3.1c-1.7,0-3-1.2-3-3s1.4-3.1,3.1-3.1S75,63.1,75,64.9L75,64.9z M71.9,62.3 c-1,0-1.7,0.9-1.7,2.5c0,1.3,0.6,2.8,1.9,2.8s1.7-1.3,1.7-2.5C73.8,63.9,73.3,62.3,71.9,62.3L71.9,62.3z"></path> <path class="st3" d="M76.8,63.6c0-0.6,0-0.6-0.4-0.9l-0.1-0.1c-0.1-0.1-0.1-0.2,0-0.3c0.4-0.2,1.1-0.5,1.4-0.8c0.1,0,0.2,0,0.2,0.1 c0,0.3-0.1,0.5-0.1,0.7c0,0.1,0,0.2,0.1,0.2c0.2-0.1,1.1-0.7,2-0.7c1.5,0,2.4,1.2,2.4,2.7c0,2-1.5,3.5-3.6,3.5 c-0.3,0-0.7,0-0.8-0.1c-0.1,0-0.2,0.1-0.2,0.4v1.5c0,1,0,1.2,0.6,1.2l0.6,0.1c0.1,0.1,0.1,0.3,0,0.4c-0.7,0-1.1,0-1.6,0s-1,0-1.4,0 c-0.1,0-0.1-0.3,0-0.4l0.3,0c0.5-0.1,0.6-0.2,0.6-1.3L76.8,63.6L76.8,63.6z M77.8,66.4c0,0.5,0.2,0.6,0.4,0.9 c0.3,0.2,0.7,0.3,1.1,0.3c1.2,0,1.9-1.1,1.9-2.6c0-1.2-0.7-2.4-2-2.4c-0.6,0-1.1,0.2-1.2,0.4c-0.1,0.2-0.2,0.4-0.2,0.9 C77.9,63.8,77.9,66.4,77.8,66.4z"></path> <path class="st3" d="M84.8,64.1c-0.4,0-0.4,0-0.4,0.4c0,1.5,0.9,2.7,2.4,2.7c0.5,0,0.9-0.1,1.3-0.7c0.2,0,0.2,0,0.3,0.2 c-0.5,1-1.5,1.4-2.3,1.4c-0.9,0-1.7-0.4-2.1-1c-0.4-0.6-0.6-1.2-0.6-1.9c0-1.8,1.2-3.3,2.9-3.3c1.2,0,2.1,0.9,2.1,1.7 c0,0.2,0,0.3-0.1,0.4c0,0.1-0.2,0.1-0.9,0.1L84.8,64.1L84.8,64.1z M85.7,63.7c1.1,0,1.4-0.1,1.5-0.1c0,0,0.1-0.1,0.1-0.3 c0-0.4-0.3-0.9-1.1-0.9s-1.6,0.8-1.6,1.3c0,0,0,0.1,0.1,0.1L85.7,63.7L85.7,63.7z"></path> <path class="st3" d="M95.1,62.7c-0.2,0-0.2,0-0.2,0.4v3.1c0,1.1,0,1.2,0.6,1.3l0.5,0c0.1,0.1,0.1,0.3,0,0.4c-0.7,0-1.1,0-1.6,0 s-1,0-1.4,0c-0.1,0-0.1-0.3,0-0.4l0.3,0c0.5-0.1,0.6-0.2,0.6-1.3v-3.1c0-0.4,0-0.4-0.3-0.4h-0.5c-0.1-0.1-0.1-0.2,0-0.3l0.6-0.3 c0.1-0.1,0.2-0.1,0.2-0.3c0-0.9,0.1-1.8,0.4-2.6c0.4-0.8,1.2-1.9,2.6-1.9c0.8,0,1.4,0.4,1.4,0.9c0,0.3-0.3,0.5-0.6,0.5 c-0.2,0-0.2-0.1-0.3-0.2c-0.3-0.3-0.7-0.6-1.2-0.6c-0.4,0-0.8,0.3-1,0.8c-0.3,0.7-0.3,1.7-0.3,2.5v0.4c0,0.4,0,0.4,0.2,0.4h1.7 c0.2,0.1,0.1,0.6-0.1,0.6L95.1,62.7L95.1,62.7z"></path> <path class="st3" d="M103.2,64.9c0,1.8-1.2,3.1-3.1,3.1c-1.7,0-3-1.2-3-3s1.4-3.1,3.1-3.1S103.2,63.1,103.2,64.9L103.2,64.9z M100,62.3c-1,0-1.7,0.9-1.7,2.5c0,1.3,0.6,2.8,1.9,2.8s1.7-1.3,1.7-2.5C101.9,63.9,101.4,62.3,100,62.3L100,62.3z"></path> <path class="st3" d="M105.1,63.6c0-0.6,0-0.6-0.4-0.9l-0.1-0.1c-0.1-0.1-0.1-0.2,0-0.3c0.3-0.1,1.1-0.5,1.5-0.7 c0.1,0,0.1,0,0.1,0.1v0.9c0,0.1,0,0.1,0,0.1c0.5-0.4,1.1-0.9,1.6-0.9c0.4,0,0.7,0.2,0.7,0.6c0,0.5-0.4,0.7-0.6,0.7 c-0.2,0-0.2,0-0.3-0.1c-0.2-0.1-0.4-0.2-0.6-0.2c-0.2,0-0.4,0.1-0.5,0.3c-0.2,0.2-0.2,0.6-0.2,1.1v2c0,1.1,0,1.2,0.6,1.3l0.5,0 c0.1,0.1,0.1,0.3,0,0.4c-0.7,0-1.1,0-1.6,0s-1,0-1.3,0c-0.1,0-0.1-0.3,0-0.4l0.3,0c0.5-0.1,0.6-0.2,0.6-1.3L105.1,63.6L105.1,63.6z "></path> <path class="st3" d="M114.8,62.7c-0.2,0-0.2,0-0.2,0.4v3.1c0,1.1,0,1.2,0.6,1.3l0.5,0c0.1,0.1,0.1,0.3,0,0.4c-0.7,0-1.1,0-1.6,0 s-1,0-1.4,0c-0.1,0-0.1-0.3,0-0.4l0.3,0c0.5-0.1,0.6-0.2,0.6-1.3v-3.1c0-0.4,0-0.4-0.3-0.4h-0.5c-0.1-0.1-0.1-0.2,0-0.3l0.6-0.3 c0.1-0.1,0.2-0.1,0.2-0.3c0-0.9,0.1-1.8,0.4-2.6c0.4-0.8,1.2-1.9,2.6-1.9c0.8,0,1.4,0.4,1.4,0.9c0,0.3-0.3,0.5-0.6,0.5 c-0.2,0-0.2-0.1-0.3-0.2c-0.3-0.3-0.7-0.6-1.2-0.6c-0.4,0-0.8,0.3-1,0.8c-0.3,0.7-0.3,1.7-0.3,2.5v0.4c0,0.4,0,0.4,0.2,0.4h1.7 c0.2,0.1,0.1,0.6-0.1,0.6L114.8,62.7L114.8,62.7z"></path> <path class="st3" d="M119.8,64.8c0.2-0.1,0.2-0.2,0.2-0.4v-0.7c0-0.5-0.2-1.3-1.1-1.3c-0.4,0-0.9,0.2-0.9,0.7c0,0.2,0,0.4-0.2,0.5 c-0.2,0.2-0.6,0.3-0.8,0.3c-0.1,0-0.2-0.1-0.2-0.2c0-0.8,1.7-1.8,2.7-1.8s1.6,0.6,1.5,1.7l-0.1,2.5c0,0.7,0.1,1.3,0.7,1.3 c0.2,0,0.3,0,0.4-0.1c0.1,0,0.2-0.1,0.2-0.1c0.1,0,0.1,0.1,0.1,0.2c0,0.1-0.5,0.6-1.2,0.6c-0.3,0-0.7-0.1-0.9-0.4 c-0.1-0.1-0.2-0.2-0.2-0.2c-0.1,0-0.3,0.1-0.6,0.3c-0.3,0.2-0.6,0.4-1.1,0.4s-0.8-0.1-1-0.3c-0.3-0.2-0.4-0.6-0.4-1 c0-0.6,0.3-0.9,1.2-1.2L119.8,64.8L119.8,64.8z M118.9,67.4c0.3,0,0.7-0.2,0.9-0.4c0.2-0.2,0.2-0.4,0.2-0.7l0-0.9 c0-0.2-0.1-0.2-0.2-0.2s-0.3,0.1-0.6,0.1c-0.9,0.3-1.3,0.5-1.3,1.1C118,66.7,118.2,67.4,118.9,67.4L118.9,67.4z"></path> <path class="st3" d="M131.4,64.1c0-1-0.4-1.5-1.4-1.5c-0.6,0-1,0.2-1.2,0.5c-0.2,0.2-0.2,0.4-0.2,0.9v2.2c0,1.1,0,1.2,0.6,1.3 l0.3,0c0.1,0.1,0.1,0.3,0,0.4c-0.4,0-0.9,0-1.4,0s-0.9,0-1.3,0c-0.1,0-0.1-0.3,0-0.4l0.3,0c0.5-0.1,0.6-0.2,0.6-1.3v-2.1 c0-1-0.4-1.5-1.3-1.5c-0.6,0-1,0.3-1.2,0.5c-0.2,0.2-0.2,0.4-0.2,0.8v2.3c0,1.1,0,1.2,0.6,1.3l0.3,0c0.1,0.1,0.1,0.3,0,0.4 c-0.4,0-0.8,0-1.3,0s-1,0-1.4,0c-0.1,0-0.1-0.3,0-0.4l0.3,0c0.5-0.1,0.6-0.2,0.6-1.3v-2.6c0-0.6,0-0.6-0.4-0.9l-0.1-0.1 c-0.1-0.1-0.1-0.2,0-0.3c0.3-0.1,1.2-0.5,1.5-0.7c0.1,0,0.1,0,0.2,0.1c0,0.3,0,0.6,0,0.7c0,0.1,0.1,0.2,0.2,0.2 c0.6-0.4,1.2-0.7,1.9-0.7s1.1,0.3,1.6,0.9c0.1,0,0.2,0,0.4-0.1c0.6-0.4,1.3-0.7,2-0.7c1.2,0,1.7,0.8,1.7,1.8v2.5 c0,1.1,0,1.2,0.6,1.3l0.4,0c0.1,0.1,0.1,0.3,0,0.4c-0.5,0-0.9,0-1.4,0s-0.9,0-1.3,0c-0.1,0-0.1-0.3,0-0.4l0.3,0 c0.5-0.1,0.6-0.2,0.6-1.3L131.4,64.1L131.4,64.1z"></path> <path class="st3" d="M135.2,63.6c0-0.6,0-0.6-0.4-0.9l-0.1-0.1c-0.1-0.1-0.1-0.2,0-0.3c0.3-0.1,1.2-0.5,1.5-0.7 c0.1,0,0.1,0,0.1,0.1c0,0.5-0.1,1.2-0.1,1.8v2.6c0,1.1,0,1.2,0.6,1.3l0.3,0c0.1,0.1,0.1,0.3,0,0.4c-0.4,0-0.9,0-1.4,0s-1,0-1.4,0 c-0.1,0-0.1-0.3,0-0.4l0.3,0c0.5-0.1,0.6-0.2,0.6-1.3V63.6L135.2,63.6z M136.4,59.5c0,0.5-0.4,0.8-0.8,0.8c-0.4,0-0.7-0.3-0.7-0.7 c0-0.5,0.4-0.8,0.8-0.8S136.4,59.1,136.4,59.5L136.4,59.5z"></path> <path class="st3" d="M139.8,66.2c0,1.1,0,1.2,0.6,1.3l0.4,0c0.1,0.1,0.1,0.3,0,0.4c-0.5,0-0.9,0-1.4,0s-1,0-1.4,0 c-0.1,0-0.1-0.3,0-0.4l0.3,0c0.5-0.1,0.6-0.2,0.6-1.3v-6.6c0-0.9,0-0.9-0.4-1.2l-0.1-0.1c-0.1,0-0.1-0.2,0-0.3 c0.4-0.1,1.1-0.3,1.6-0.6c0.1,0,0.1,0,0.1,0.1c0,0.4,0,1.2,0,1.8L139.8,66.2L139.8,66.2z"></path> <path class="st3" d="M142.5,63.6c0-0.6,0-0.6-0.4-0.9l-0.1-0.1c-0.1-0.1-0.1-0.2,0-0.3c0.3-0.1,1.2-0.5,1.5-0.7 c0.1,0,0.1,0,0.1,0.1c0,0.5-0.1,1.2-0.1,1.8v2.6c0,1.1,0,1.2,0.6,1.3l0.3,0c0.1,0.1,0.1,0.3,0,0.4c-0.4,0-0.9,0-1.4,0s-1,0-1.4,0 c-0.1,0-0.1-0.3,0-0.4l0.3,0c0.5-0.1,0.6-0.2,0.6-1.3V63.6L142.5,63.6z M143.7,59.5c0,0.5-0.4,0.8-0.8,0.8c-0.4,0-0.7-0.3-0.7-0.7 c0-0.5,0.4-0.8,0.8-0.8S143.7,59.1,143.7,59.5L143.7,59.5z"></path> <path class="st3" d="M146.7,64.1c-0.4,0-0.4,0-0.4,0.4c0,1.5,0.9,2.7,2.4,2.7c0.5,0,0.9-0.1,1.3-0.7c0.1,0,0.2,0,0.3,0.2 c-0.5,1-1.5,1.4-2.3,1.4c-0.9,0-1.7-0.4-2.1-1c-0.4-0.6-0.6-1.2-0.6-1.9c0-1.8,1.2-3.3,2.9-3.3c1.2,0,2.1,0.9,2.1,1.7 c0,0.2,0,0.3-0.1,0.4c0,0.1-0.2,0.1-0.9,0.1L146.7,64.1L146.7,64.1z M147.6,63.7c1.1,0,1.4-0.1,1.5-0.1c0,0,0.1-0.1,0.1-0.3 c0-0.4-0.3-0.9-1.1-0.9s-1.6,0.8-1.6,1.3c0,0,0,0.1,0.1,0.1L147.6,63.7L147.6,63.7z"></path> <path class="st3" d="M154.6,62.1c0.1,0.3,0.2,0.8,0.2,1.2c-0.1,0.1-0.3,0.1-0.4,0c-0.2-0.6-0.7-1.1-1.3-1.1s-0.9,0.4-0.9,0.9 c0,0.6,0.6,0.9,1.1,1.2c0.8,0.4,1.5,0.9,1.5,2c0,1.1-1,1.7-2.1,1.7c-0.7,0-1.2-0.1-1.6-0.4c-0.1-0.3-0.2-1-0.2-1.5 c0.1-0.1,0.3-0.1,0.3,0c0.2,0.8,0.7,1.5,1.6,1.5c0.5,0,1-0.3,1-0.9c0-0.7-0.6-1-1.1-1.3c-0.9-0.5-1.4-1-1.4-1.8 c0-1.1,0.9-1.7,2-1.7C153.9,61.9,154.5,62,154.6,62.1L154.6,62.1z"></path> <path class="st3" d="M162.4,64.8c0.2-0.1,0.2-0.2,0.2-0.4v-0.7c0-0.5-0.1-1.3-1.1-1.3c-0.4,0-0.9,0.2-0.9,0.7c0,0.2,0,0.4-0.1,0.5 c-0.2,0.2-0.6,0.3-0.8,0.3c-0.1,0-0.2-0.1-0.2-0.2c0-0.8,1.6-1.8,2.7-1.8s1.6,0.6,1.5,1.7l-0.1,2.5c0,0.7,0.1,1.3,0.7,1.3 c0.1,0,0.3,0,0.4-0.1c0.1,0,0.1-0.1,0.2-0.1c0.1,0,0.1,0.1,0.1,0.2c0,0.1-0.5,0.6-1.2,0.6c-0.4,0-0.7-0.1-0.9-0.4 c-0.1-0.1-0.1-0.2-0.2-0.2c-0.1,0-0.3,0.1-0.6,0.3c-0.3,0.2-0.6,0.4-1.1,0.4s-0.8-0.1-1-0.3c-0.3-0.2-0.4-0.6-0.4-1 c0-0.6,0.3-0.9,1.2-1.2L162.4,64.8L162.4,64.8z M161.5,67.4c0.3,0,0.7-0.2,0.9-0.4c0.2-0.2,0.2-0.4,0.2-0.7l0-0.9 c0-0.2-0.1-0.2-0.1-0.2s-0.3,0.1-0.6,0.1c-0.9,0.3-1.3,0.5-1.3,1.1C160.6,66.7,160.8,67.4,161.5,67.4L161.5,67.4z"></path> <path class="st3" d="M166.3,63.6c0-0.6,0-0.6-0.4-0.9l-0.1-0.1c-0.1-0.1-0.1-0.2,0-0.3c0.3-0.1,1.2-0.5,1.5-0.7 c0.1,0,0.1,0,0.2,0.1c0,0.3,0,0.6,0,0.7c0,0.1,0.1,0.2,0.2,0.2c0.6-0.4,1.3-0.7,2-0.7c1.2,0,1.7,0.8,1.7,1.8v2.5 c0,1.1,0,1.2,0.6,1.3l0.3,0c0.1,0.1,0.1,0.3,0,0.4c-0.4,0-0.9,0-1.4,0s-1,0-1.4,0c-0.1,0-0.1-0.3,0-0.4l0.3,0 c0.5-0.1,0.6-0.2,0.6-1.3V64c0-0.8-0.4-1.4-1.4-1.4c-0.6,0-1,0.2-1.2,0.5c-0.2,0.2-0.2,0.4-0.2,0.9v2.2c0,1.1,0,1.2,0.6,1.3l0.3,0 c0.1,0.1,0.1,0.3,0,0.4c-0.4,0-0.8,0-1.3,0s-1,0-1.4,0c-0.1,0-0.1-0.3,0-0.4l0.3,0c0.5-0.1,0.6-0.2,0.6-1.3L166.3,63.6L166.3,63.6z "></path> <path class="st3" d="M178.7,65.7c0,1.1,0,1.7,0.4,1.7c0.2,0,0.4-0.1,0.6-0.1c0.1,0,0.1,0.4,0,0.5c-0.6,0.1-1.5,0.3-1.9,0.5 c-0.1,0-0.2,0-0.2-0.1v-0.2c0-0.2,0-0.4,0-0.4h-0.1c-0.6,0.4-1.1,0.7-1.8,0.7c-1.6,0-2.7-1.3-2.7-2.8c0-2,1.6-3.4,3.5-3.4 c0.5,0,0.8,0.1,1,0.1c0.1,0,0.1-0.1,0.1-0.2v-2.2c0-0.9,0-0.9-0.4-1.2l-0.1-0.1c-0.1,0-0.1-0.2,0-0.3c0.4-0.1,1.1-0.3,1.6-0.6 c0.1,0,0.1,0,0.1,0.1c0,0.4,0,1.2,0,1.8L178.7,65.7L178.7,65.7z M177.6,63.5c0-0.3-0.1-0.4-0.2-0.6c-0.2-0.3-0.7-0.6-1.2-0.6 c-1.3,0-2,1.1-2,2.4s0.7,2.6,2.2,2.6c0.4,0,0.9-0.2,1.1-0.4c0.1-0.1,0.1-0.3,0.1-0.5L177.6,63.5L177.6,63.5z"></path> <path class="st3" d="M186.3,62.7c-0.2,0-0.2,0-0.2,0.4v3.1c0,1.1,0,1.2,0.6,1.3l0.5,0c0.1,0.1,0.1,0.3,0,0.4c-0.7,0-1.1,0-1.6,0 s-1,0-1.4,0c-0.1,0-0.1-0.3,0-0.4l0.3,0c0.5-0.1,0.6-0.2,0.6-1.3v-3.1c0-0.4,0-0.4-0.3-0.4h-0.5c-0.1-0.1-0.1-0.2,0-0.3l0.6-0.3 c0.1-0.1,0.2-0.1,0.2-0.3c0-0.9,0.1-1.8,0.4-2.6c0.4-0.8,1.2-1.9,2.6-1.9c0.8,0,1.4,0.4,1.4,0.9c0,0.3-0.3,0.5-0.6,0.5 c-0.2,0-0.2-0.1-0.4-0.2c-0.3-0.3-0.7-0.6-1.2-0.6c-0.4,0-0.8,0.3-1,0.8c-0.3,0.7-0.3,1.7-0.3,2.5v0.4c0,0.4,0,0.4,0.2,0.4h1.7 c0.2,0.1,0.1,0.6-0.1,0.6L186.3,62.7L186.3,62.7z"></path> <path class="st3" d="M189.2,63.6c0-0.6,0-0.6-0.4-0.9l-0.1-0.1c-0.1-0.1-0.1-0.2,0-0.3c0.3-0.1,1.1-0.5,1.5-0.7 c0.1,0,0.1,0,0.1,0.1v0.9c0,0.1,0,0.1,0,0.1c0.5-0.4,1.1-0.9,1.6-0.9c0.4,0,0.7,0.2,0.7,0.6c0,0.5-0.4,0.7-0.6,0.7 c-0.1,0-0.2,0-0.3-0.1c-0.2-0.1-0.4-0.2-0.6-0.2c-0.2,0-0.4,0.1-0.5,0.3c-0.1,0.2-0.2,0.6-0.2,1.1v2c0,1.1,0,1.2,0.6,1.3l0.5,0 c0.1,0.1,0.1,0.3,0,0.4c-0.7,0-1.1,0-1.6,0s-1,0-1.3,0c-0.1,0-0.1-0.3,0-0.4l0.3,0c0.5-0.1,0.6-0.2,0.6-1.3L189.2,63.6L189.2,63.6z "></path> <path class="st3" d="M194.1,63.6c0-0.6,0-0.6-0.4-0.9l-0.1-0.1c-0.1-0.1-0.1-0.2,0-0.3c0.3-0.1,1.2-0.5,1.5-0.7 c0.1,0,0.1,0,0.1,0.1c0,0.5-0.1,1.2-0.1,1.8v2.6c0,1.1,0,1.2,0.6,1.3l0.3,0c0.1,0.1,0.1,0.3,0,0.4c-0.4,0-0.9,0-1.4,0s-1,0-1.4,0 c-0.1,0-0.1-0.3,0-0.4l0.3,0c0.5-0.1,0.6-0.2,0.6-1.3V63.6L194.1,63.6z M195.3,59.5c0,0.5-0.4,0.8-0.8,0.8c-0.4,0-0.7-0.3-0.7-0.7 c0-0.5,0.4-0.8,0.8-0.8S195.3,59.1,195.3,59.5L195.3,59.5z"></path> <path class="st3" d="M198.3,64.1c-0.4,0-0.4,0-0.4,0.4c0,1.5,0.9,2.7,2.4,2.7c0.5,0,0.9-0.1,1.3-0.7c0.1,0,0.2,0,0.3,0.2 c-0.5,1-1.5,1.4-2.3,1.4c-0.9,0-1.7-0.4-2.1-1c-0.4-0.6-0.6-1.2-0.6-1.9c0-1.8,1.2-3.3,2.9-3.3c1.2,0,2.1,0.9,2.1,1.7 c0,0.2,0,0.3-0.1,0.4c0,0.1-0.2,0.1-0.9,0.1L198.3,64.1L198.3,64.1z M199.2,63.7c1.1,0,1.4-0.1,1.5-0.1c0,0,0.1-0.1,0.1-0.3 c0-0.4-0.3-0.9-1.1-0.9s-1.6,0.8-1.6,1.3c0,0,0,0.1,0.1,0.1L199.2,63.7L199.2,63.7z"></path> <path class="st3" d="M203.6,63.6c0-0.6,0-0.6-0.4-0.9l-0.1-0.1c-0.1-0.1-0.1-0.2,0-0.3c0.3-0.1,1.2-0.5,1.5-0.7 c0.1,0,0.1,0,0.2,0.1c0,0.3,0,0.6,0,0.7c0,0.1,0.1,0.2,0.2,0.2c0.6-0.4,1.3-0.7,2-0.7c1.2,0,1.7,0.8,1.7,1.8v2.5 c0,1.1,0,1.2,0.6,1.3l0.3,0c0.1,0.1,0.1,0.3,0,0.4c-0.4,0-0.9,0-1.4,0s-1,0-1.4,0c-0.1,0-0.1-0.3,0-0.4l0.3,0 c0.5-0.1,0.6-0.2,0.6-1.3V64c0-0.8-0.4-1.4-1.4-1.4c-0.6,0-1,0.2-1.2,0.5c-0.2,0.2-0.2,0.4-0.2,0.9v2.2c0,1.1,0,1.2,0.6,1.3l0.3,0 c0.1,0.1,0.1,0.3,0,0.4c-0.4,0-0.8,0-1.3,0s-1,0-1.4,0c-0.1,0-0.1-0.3,0-0.4l0.3,0c0.5-0.1,0.6-0.2,0.6-1.3L203.6,63.6L203.6,63.6z "></path> <path class="st3" d="M216,65.7c0,1.1,0,1.7,0.4,1.7c0.2,0,0.4-0.1,0.6-0.1c0.1,0,0.1,0.4,0,0.5c-0.6,0.1-1.5,0.3-1.9,0.5 c-0.1,0-0.2,0-0.2-0.1v-0.2c0-0.2,0-0.4,0-0.4h-0.1c-0.6,0.4-1.1,0.7-1.8,0.7c-1.6,0-2.7-1.3-2.7-2.8c0-2,1.6-3.4,3.5-3.4 c0.5,0,0.8,0.1,1,0.1c0.1,0,0.1-0.1,0.1-0.2v-2.2c0-0.9,0-0.9-0.4-1.2l-0.1-0.1c-0.1,0-0.1-0.2,0-0.3c0.4-0.1,1.1-0.3,1.6-0.6 c0.1,0,0.1,0,0.1,0.1c0,0.4,0,1.2,0,1.8L216,65.7L216,65.7z M214.9,63.5c0-0.3-0.1-0.4-0.2-0.6c-0.2-0.3-0.7-0.6-1.2-0.6 c-1.3,0-2,1.1-2,2.4s0.7,2.6,2.2,2.6c0.4,0,0.9-0.2,1.1-0.4c0.1-0.1,0.1-0.3,0.1-0.5L214.9,63.5L214.9,63.5z"></path> <path class="st3" d="M221.2,62.1c0.1,0.3,0.2,0.8,0.2,1.2c-0.1,0.1-0.3,0.1-0.4,0c-0.2-0.6-0.7-1.1-1.3-1.1s-0.9,0.4-0.9,0.9 c0,0.6,0.6,0.9,1.1,1.2c0.8,0.4,1.5,0.9,1.5,2c0,1.1-1,1.7-2.1,1.7c-0.7,0-1.2-0.1-1.6-0.4c-0.1-0.3-0.2-1-0.2-1.5 c0.1-0.1,0.3-0.1,0.3,0c0.2,0.8,0.7,1.5,1.6,1.5c0.5,0,1-0.3,1-0.9c0-0.7-0.6-1-1.1-1.3c-0.9-0.5-1.4-1-1.4-1.8 c0-1.1,0.9-1.7,2-1.7C220.6,61.9,221.1,62,221.2,62.1L221.2,62.1z"></path> <path class="st3" d="M232.2,64.9c0,1.8-1.2,3.1-3.1,3.1c-1.7,0-3-1.2-3-3s1.4-3.1,3.1-3.1S232.2,63.1,232.2,64.9L232.2,64.9z M229,62.3c-1,0-1.7,0.9-1.7,2.5c0,1.3,0.6,2.8,1.9,2.8s1.7-1.3,1.7-2.5C230.9,63.9,230.4,62.3,229,62.3L229,62.3z"></path> <path class="st3" d="M235.4,62.7c-0.2,0-0.2,0-0.2,0.4v3.1c0,1.1,0,1.2,0.6,1.3l0.5,0c0.1,0.1,0.1,0.3,0,0.4c-0.7,0-1.1,0-1.6,0 s-1,0-1.4,0c-0.1,0-0.1-0.3,0-0.4l0.3,0c0.5-0.1,0.6-0.2,0.6-1.3v-3.1c0-0.4,0-0.4-0.3-0.4h-0.5c-0.1-0.1-0.1-0.2,0-0.3l0.6-0.3 c0.1-0.1,0.2-0.1,0.2-0.3c0-0.9,0.1-1.8,0.4-2.6c0.4-0.8,1.2-1.9,2.6-1.9c0.8,0,1.4,0.4,1.4,0.9c0,0.3-0.3,0.5-0.6,0.5 c-0.2,0-0.2-0.1-0.4-0.2c-0.3-0.3-0.7-0.6-1.2-0.6c-0.4,0-0.8,0.3-1,0.8c-0.3,0.7-0.3,1.7-0.3,2.5v0.4c0,0.4,0,0.4,0.2,0.4h1.7 c0.2,0.1,0.1,0.6-0.1,0.6L235.4,62.7L235.4,62.7z"></path> <path class="st3" d="M244,64.8c0.2-0.1,0.2-0.2,0.2-0.4v-0.7c0-0.5-0.1-1.3-1.1-1.3c-0.4,0-0.9,0.2-0.9,0.7c0,0.2,0,0.4-0.1,0.5 c-0.2,0.2-0.6,0.3-0.8,0.3c-0.1,0-0.2-0.1-0.2-0.2c0-0.8,1.6-1.8,2.7-1.8s1.6,0.6,1.5,1.7l-0.1,2.5c0,0.7,0.1,1.3,0.7,1.3 c0.1,0,0.3,0,0.4-0.1c0.1,0,0.1-0.1,0.2-0.1c0.1,0,0.1,0.1,0.1,0.2c0,0.1-0.5,0.6-1.2,0.6c-0.4,0-0.7-0.1-0.9-0.4 c-0.1-0.1-0.1-0.2-0.2-0.2c-0.1,0-0.3,0.1-0.6,0.3c-0.3,0.2-0.6,0.4-1.1,0.4s-0.8-0.1-1-0.3c-0.3-0.2-0.4-0.6-0.4-1 c0-0.6,0.3-0.9,1.2-1.2L244,64.8L244,64.8z M243.1,67.4c0.3,0,0.7-0.2,0.9-0.4c0.2-0.2,0.2-0.4,0.2-0.7l0-0.9 c0-0.2-0.1-0.2-0.1-0.2s-0.3,0.1-0.6,0.1c-0.9,0.3-1.3,0.5-1.3,1.1C242.2,66.7,242.4,67.4,243.1,67.4L243.1,67.4z"></path> <path class="st3" d="M248.8,66.2c0,1.1,0,1.2,0.6,1.3l0.4,0c0.1,0.1,0.1,0.3,0,0.4c-0.5,0-0.9,0-1.4,0s-1,0-1.4,0 c-0.1,0-0.1-0.3,0-0.4l0.3,0c0.5-0.1,0.6-0.2,0.6-1.3v-6.6c0-0.9,0-0.9-0.4-1.2l-0.1-0.1c-0.1,0-0.1-0.2,0-0.3 c0.4-0.1,1.1-0.3,1.6-0.6c0.1,0,0.1,0,0.1,0.1c0,0.4,0,1.2,0,1.8L248.8,66.2L248.8,66.2z"></path> <path class="st3" d="M255.4,62.1c0.1,0.1,0.2,0.3,0.2,0.6c0,0.3-0.1,0.5-0.3,0.5c-0.1,0-0.1,0-0.2-0.1c-0.3-0.4-0.9-0.8-1.5-0.8 c-1,0-2,0.8-2,2.4c0,1.1,0.8,2.5,2.4,2.5c0.9,0,1.3-0.4,1.6-0.9c0.1,0,0.2,0.1,0.3,0.2c-0.5,1.1-1.6,1.5-2.4,1.5 c-0.8,0-1.5-0.2-2-0.7c-0.5-0.5-0.9-1.2-0.9-2.2c0-1.6,1.1-3.2,3.5-3.2C254.4,61.9,255,61.9,255.4,62.1L255.4,62.1z"></path> <path class="st3" d="M262.4,64.9c0,1.8-1.2,3.1-3.1,3.1c-1.7,0-3-1.2-3-3s1.4-3.1,3.1-3.1S262.4,63.1,262.4,64.9L262.4,64.9z M259.3,62.3c-1,0-1.7,0.9-1.7,2.5c0,1.3,0.6,2.8,1.9,2.8s1.7-1.3,1.7-2.5C261.2,63.9,260.7,62.3,259.3,62.3L259.3,62.3z"></path> <path class="st3" d="M264.2,59.6c0-0.9,0-0.9-0.5-1.2l-0.1-0.1c-0.1,0-0.1-0.2,0-0.3c0.4-0.1,1-0.3,1.6-0.6c0.1,0,0.1,0,0.1,0.1 c0,0.4,0,1.2,0,1.8v3.1c0,0.1,0,0.2,0.1,0.3c0.5-0.4,1.2-0.8,2-0.8c1.4,0,1.9,0.9,1.9,1.9v2.4c0,1.1,0,1.2,0.5,1.3l0.4,0 c0.1,0.1,0.1,0.3,0,0.4c-0.5,0-1,0-1.5,0s-1,0-1.4,0c-0.1,0-0.1-0.3,0-0.4l0.3,0c0.5-0.1,0.5-0.2,0.5-1.3v-2.1 c0-0.9-0.5-1.6-1.4-1.6c-0.5,0-0.9,0.2-1.1,0.4c-0.3,0.2-0.3,0.3-0.3,0.8v2.4c0,1.1,0,1.2,0.5,1.3l0.3,0c0.1,0.1,0.1,0.3,0,0.4 c-0.4,0-0.9,0-1.4,0s-1,0-1.4,0c-0.1,0-0.1-0.3,0-0.4l0.4,0c0.5-0.1,0.5-0.2,0.5-1.3L264.2,59.6L264.2,59.6z"></path> <path class="st3" d="M277,64.9c0,1.8-1.2,3.1-3.1,3.1c-1.7,0-3-1.2-3-3s1.4-3.1,3.1-3.1S277,63.1,277,64.9L277,64.9z M273.9,62.3 c-1,0-1.7,0.9-1.7,2.5c0,1.3,0.6,2.8,1.9,2.8s1.7-1.3,1.7-2.5C275.8,63.9,275.3,62.3,273.9,62.3L273.9,62.3z"></path> <path class="st3" d="M279.9,66.2c0,1.1,0,1.2,0.5,1.3l0.4,0c0.1,0.1,0.1,0.3,0,0.4c-0.5,0-0.9,0-1.4,0s-1,0-1.4,0 c-0.1,0-0.1-0.3,0-0.4l0.3,0c0.5-0.1,0.5-0.2,0.5-1.3v-6.6c0-0.9,0-0.9-0.5-1.2l-0.1-0.1c-0.1,0-0.1-0.2,0-0.3 c0.4-0.1,1-0.3,1.6-0.6c0.1,0,0.1,0,0.1,0.1c0,0.4,0,1.2,0,1.8L279.9,66.2L279.9,66.2z"></path> <path class="st3" d="M282.6,63.6c0-0.6,0-0.6-0.4-0.9l-0.1-0.1c-0.1-0.1-0.1-0.2,0-0.3c0.3-0.1,1.2-0.5,1.5-0.7 c0.1,0,0.1,0,0.1,0.1c0,0.5-0.1,1.2-0.1,1.8v2.6c0,1.1,0,1.2,0.5,1.3l0.3,0c0.1,0.1,0.1,0.3,0,0.4c-0.4,0-0.9,0-1.4,0s-1,0-1.4,0 c-0.1,0-0.1-0.3,0-0.4l0.3,0c0.5-0.1,0.5-0.2,0.5-1.3L282.6,63.6L282.6,63.6z M283.8,59.5c0,0.5-0.4,0.8-0.8,0.8 c-0.5,0-0.7-0.3-0.7-0.7c0-0.5,0.4-0.8,0.8-0.8S283.8,59.1,283.8,59.5L283.8,59.5z"></path> <path class="st3" d="M290.2,62.1c0.1,0.1,0.2,0.3,0.2,0.6c0,0.3-0.1,0.5-0.3,0.5c-0.1,0-0.1,0-0.2-0.1c-0.3-0.4-0.9-0.8-1.5-0.8 c-1,0-2,0.8-2,2.4c0,1.1,0.8,2.5,2.4,2.5c0.9,0,1.3-0.4,1.6-0.9c0.1,0,0.2,0.1,0.3,0.2c-0.5,1.1-1.6,1.5-2.4,1.5 c-0.8,0-1.5-0.2-2-0.7c-0.5-0.5-0.9-1.2-0.9-2.2c0-1.6,1.1-3.2,3.5-3.2C289.3,61.9,289.9,61.9,290.2,62.1L290.2,62.1z"></path> <path class="st3" d="M294.7,62.1c0.1,0.3,0.2,0.8,0.2,1.2c-0.1,0.1-0.3,0.1-0.4,0c-0.2-0.6-0.7-1.1-1.3-1.1s-0.9,0.4-0.9,0.9 c0,0.6,0.6,0.9,1.1,1.2c0.8,0.4,1.5,0.9,1.5,2c0,1.1-1,1.7-2.1,1.7c-0.7,0-1.2-0.1-1.6-0.4c-0.1-0.3-0.2-1-0.2-1.5 c0.1-0.1,0.3-0.1,0.3,0c0.2,0.8,0.7,1.5,1.5,1.5c0.5,0,1-0.3,1-0.9c0-0.7-0.6-1-1.1-1.3c-0.9-0.5-1.4-1-1.4-1.8 c0-1.1,0.9-1.7,2-1.7C294.1,61.9,294.6,62,294.7,62.1L294.7,62.1z"></path> </g> </svg>